<svg width="100" height="100" viewBox="0 0 100 100" fill="none" xmlns="http://www.w3.org/2000/svg">
    <circle id="circle" cx="50" cy="50" r="49" fill="#C4C4C4" stroke="#B10505" stroke-width="2" />
    <path id="text"
        d="M36.7539 34.5361V27.7334C35.7109 27.6865 34.7061 27.6309 33.7393 27.5664C32.7725 27.4961 31.8848 27.4316 31.0762 27.373V29.3418C31.0762 30.1328 31 30.8213 30.8477 31.4072C30.7012 31.9873 30.4668 32.4707 30.1445 32.8574C29.8223 33.2441 29.4121 33.5312 28.9141 33.7188C28.416 33.9062 27.8184 34 27.1211 34C26.6289 34 26.1689 33.9268 25.7412 33.7803C25.3135 33.6279 24.9414 33.4141 24.625 33.1387C24.3086 32.8633 24.0596 32.5322 23.8779 32.1455C23.7021 31.7588 23.6143 31.3281 23.6143 30.8535C23.6143 30.3379 23.7314 29.8369 23.9658 29.3506C24.2002 28.8584 24.543 28.4248 24.9941 28.0498C25.4512 27.6748 26.0137 27.373 26.6816 27.1445C27.3555 26.916 28.1318 26.8018 29.0107 26.8018H29.7314V25.3252C29.7314 24.8564 29.7402 24.4082 29.7578 23.9805C29.7812 23.5469 29.8369 23.1279 29.9248 22.7236C30.0127 22.3193 30.1475 21.9268 30.3291 21.5459C30.5107 21.165 30.7598 20.7871 31.0762 20.4121C30.7539 20.6523 30.4023 20.8135 30.0215 20.8955C29.6465 20.9775 29.2627 21.0186 28.8701 21.0186C28.6006 21.0186 28.3281 21.0068 28.0527 20.9834C27.7832 20.9541 27.5166 20.9248 27.2529 20.8955C26.9893 20.8662 26.7314 20.8398 26.4795 20.8164C26.2334 20.7871 25.9961 20.7725 25.7676 20.7725C25.5215 20.7725 25.3076 20.8047 25.126 20.8691C24.9443 20.9277 24.7949 21.0127 24.6777 21.124C24.5605 21.2295 24.4727 21.3525 24.4141 21.4932C24.3555 21.6338 24.3262 21.7832 24.3262 21.9414C24.3262 22.0996 24.3643 22.2549 24.4404 22.4072C24.5166 22.5537 24.6279 22.6885 24.7744 22.8115C24.9209 22.9287 25.0996 23.0225 25.3105 23.0928C25.5273 23.1631 25.7705 23.1982 26.04 23.1982C26.2861 23.1982 26.5088 23.1748 26.708 23.1279C26.9072 23.0811 27.0771 23.0283 27.2178 22.9697C27.3818 22.9053 27.5283 22.8262 27.6572 22.7324L27.8418 23.1104C27.6836 23.2158 27.5078 23.3066 27.3145 23.3828C27.1504 23.4473 26.957 23.5088 26.7344 23.5674C26.5176 23.6201 26.2861 23.6465 26.04 23.6465C25.7002 23.6465 25.3926 23.5996 25.1172 23.5059C24.8418 23.4062 24.6045 23.2744 24.4053 23.1104C24.2119 22.9404 24.0596 22.7412 23.9482 22.5127C23.8428 22.2783 23.79 22.0264 23.79 21.7568C23.79 21.4404 23.8486 21.1621 23.9658 20.9219C24.083 20.6758 24.2412 20.4678 24.4404 20.2979C24.6455 20.1279 24.8828 19.999 25.1523 19.9111C25.4277 19.8232 25.7236 19.7793 26.04 19.7793C26.3623 19.7793 26.6816 19.7998 26.998 19.8408C27.3145 19.8818 27.6279 19.9287 27.9385 19.9814C28.2549 20.0283 28.5654 20.0723 28.8701 20.1133C29.1807 20.1543 29.4854 20.1748 29.7842 20.1748C30.083 20.1748 30.376 20.1484 30.6631 20.0957C30.9502 20.0371 31.2402 19.9316 31.5332 19.7793L31.8936 20.0518C31.7588 20.2275 31.6416 20.4238 31.542 20.6406C31.4424 20.8574 31.3574 21.1211 31.2871 21.4316C31.2168 21.7422 31.1641 22.1143 31.1289 22.5479C31.0938 22.9756 31.0762 23.4941 31.0762 24.1035V26.8018H36.7539V24.2793C36.7539 23.7109 36.7686 23.207 36.7979 22.7676C36.8271 22.3223 36.8682 21.9268 36.9209 21.5811C36.9795 21.2295 37.0498 20.9189 37.1318 20.6494C37.2139 20.374 37.3076 20.125 37.4131 19.9023C37.5244 19.6797 37.6445 19.4717 37.7734 19.2783C37.9023 19.085 38.04 18.8916 38.1865 18.6982L38.5469 18.9707C38.459 19.1523 38.3799 19.3516 38.3096 19.5684C38.2451 19.7793 38.1895 20.0547 38.1426 20.3945C38.1016 20.7285 38.0693 21.1504 38.0459 21.6602C38.0225 22.1641 38.0107 22.7969 38.0107 23.5586V26.8018H39.54L39.2676 27.7861C39.0625 27.7861 38.8516 27.7861 38.6348 27.7861C38.4238 27.7861 38.2158 27.7803 38.0107 27.7686V34.3604L36.7539 34.5361ZM27.2969 33.5518C27.7012 33.5518 28.0557 33.4961 28.3604 33.3848C28.665 33.2734 28.917 33.0889 29.1162 32.8311C29.3213 32.5732 29.4736 32.2334 29.5732 31.8115C29.6787 31.3896 29.7314 30.8652 29.7314 30.2383V27.2852C29.5498 27.2734 29.3711 27.2646 29.1953 27.2588C29.0254 27.2529 28.873 27.25 28.7383 27.25C28.2285 27.25 27.7773 27.3057 27.3848 27.417C26.9922 27.5225 26.6494 27.666 26.3564 27.8477C26.0635 28.0293 25.8145 28.2402 25.6094 28.4805C25.4102 28.7207 25.249 28.9756 25.126 29.2451C25.0029 29.5088 24.915 29.7812 24.8623 30.0625C24.8096 30.3379 24.7832 30.6016 24.7832 30.8535C24.7832 31.3457 24.8594 31.7646 25.0117 32.1104C25.1641 32.4502 25.3604 32.7285 25.6006 32.9453C25.8408 33.1562 26.1104 33.3115 26.4092 33.4111C26.708 33.5049 27.0039 33.5518 27.2969 33.5518ZM44.5656 33.0068C44.7707 33.0068 44.9787 32.9541 45.1896 32.8486C45.4064 32.7432 45.6232 32.5791 45.84 32.3564C46.0627 32.1338 46.2912 31.8467 46.5256 31.4951C46.76 31.1377 47.0002 30.7129 47.2463 30.2207L47.3342 30.0361L47.6945 30.3086L47.6066 30.4932C47.2902 31.1201 46.9738 31.6562 46.6574 32.1016C46.3469 32.5469 46.0393 32.9102 45.7346 33.1914C45.4357 33.4727 45.1398 33.6777 44.8469 33.8066C44.5539 33.9355 44.2727 34 44.0031 34C43.6223 34 43.2824 33.9209 42.9836 33.7627C42.6848 33.6045 42.4328 33.3906 42.2277 33.1211C42.0227 32.8457 41.8674 32.5293 41.7619 32.1719C41.6506 31.8086 41.5949 31.4277 41.5949 31.0293C41.5949 30.3965 41.6828 29.8223 41.8586 29.3066C42.0285 28.7852 42.257 28.3398 42.5441 27.9707C42.8371 27.6016 43.1682 27.3145 43.5373 27.1094C43.9064 26.9043 44.2902 26.8018 44.6887 26.8018C45.093 26.8018 45.4006 26.9043 45.6115 27.1094C45.8283 27.3145 45.9367 27.5723 45.9367 27.8828C45.9367 28.1816 45.8518 28.4629 45.6818 28.7266C45.5119 28.9844 45.2805 29.2393 44.9875 29.4912C44.7004 29.7373 44.3664 29.9834 43.9855 30.2295C43.6047 30.4697 43.2033 30.7188 42.7814 30.9766C42.8225 31.2812 42.8928 31.5596 42.9924 31.8115C43.092 32.0576 43.218 32.2715 43.3703 32.4531C43.5227 32.6289 43.6984 32.7666 43.8977 32.8662C44.0969 32.96 44.3195 33.0068 44.5656 33.0068ZM44.8381 28.1465C44.8381 27.9121 44.7736 27.7275 44.6447 27.5928C44.5217 27.458 44.3693 27.3906 44.1877 27.3906C44.0354 27.3906 43.8742 27.4463 43.7043 27.5576C43.5344 27.6631 43.3791 27.8359 43.2385 28.0762C43.0979 28.3105 42.9807 28.6123 42.8869 28.9814C42.7932 29.3506 42.7463 29.7988 42.7463 30.3262V30.5283C42.9455 30.4229 43.1652 30.2852 43.4055 30.1152C43.6516 29.9395 43.8801 29.7461 44.091 29.5352C44.302 29.3242 44.4777 29.1016 44.6184 28.8672C44.7648 28.627 44.8381 28.3867 44.8381 28.1465ZM54.4604 31.8203C54.4604 32.1543 54.4896 32.4355 54.5482 32.6641C54.6068 32.8926 54.7094 33.0068 54.8559 33.0068C54.9438 33.0068 55.0375 32.9658 55.1371 32.8838C55.2426 32.7959 55.3627 32.6553 55.4975 32.4619C55.6322 32.2686 55.7846 32.0195 55.9545 31.7148C56.1303 31.4043 56.3295 31.0264 56.5521 30.5811L56.8158 30.0361L57.1762 30.3086L56.9125 30.8535C56.6664 31.3457 56.435 31.7881 56.2182 32.1807C56.0072 32.5674 55.8051 32.8955 55.6117 33.165C55.4184 33.4346 55.2279 33.6426 55.0404 33.7891C54.8588 33.9297 54.6771 34 54.4955 34C54.3021 34 54.1381 33.9473 54.0033 33.8418C53.8744 33.7363 53.766 33.5928 53.6781 33.4111C53.5902 33.2236 53.5229 33.0098 53.476 32.7695C53.4291 32.5234 53.3969 32.2627 53.3793 31.9873C53.2387 32.2686 53.0834 32.5322 52.9135 32.7783C52.7436 33.0186 52.5648 33.2295 52.3773 33.4111C52.1957 33.5928 52.0053 33.7363 51.8061 33.8418C51.6068 33.9473 51.4076 34 51.2084 34C50.9154 34 50.6313 33.9385 50.3559 33.8154C50.0805 33.6924 49.8344 33.5049 49.6176 33.2529C49.4066 33.001 49.2367 32.6846 49.1078 32.3037C48.9789 31.917 48.9145 31.4629 48.9145 30.9414C48.9145 30.332 48.9936 29.7754 49.1518 29.2715C49.31 28.7617 49.5238 28.3252 49.7934 27.9619C50.0629 27.5928 50.3734 27.3086 50.725 27.1094C51.0766 26.9043 51.4457 26.8018 51.8324 26.8018C52.0668 26.8018 52.2836 26.8545 52.4828 26.96C52.682 27.0654 52.8549 27.1943 53.0014 27.3467C53.1537 27.4932 53.2797 27.6514 53.3793 27.8213C53.4789 27.9854 53.5463 28.126 53.5814 28.2432L53.6869 27.3906C53.6986 27.2793 53.7514 27.1855 53.8451 27.1094C53.9447 27.0332 54.0531 26.9746 54.1703 26.9336C54.2875 26.8867 54.4018 26.8545 54.5131 26.8369C54.6244 26.8135 54.7035 26.8018 54.7504 26.8018C54.8207 26.8018 54.8676 26.8135 54.891 26.8369C54.9145 26.8604 54.9262 26.9072 54.9262 26.9775C54.9262 27.0654 54.8998 27.2441 54.8471 27.5137C54.8002 27.7773 54.7475 28.1172 54.6889 28.5332C54.6361 28.9434 54.5834 29.4268 54.5307 29.9834C54.4838 30.54 54.4604 31.1523 54.4604 31.8203ZM53.4936 29.5C53.4936 29.2305 53.4525 28.9668 53.3705 28.709C53.2885 28.4453 53.1771 28.2139 53.0365 28.0146C52.8959 27.8096 52.7318 27.6455 52.5443 27.5225C52.3627 27.3994 52.1693 27.3379 51.9643 27.3379C51.7123 27.3379 51.475 27.4111 51.2523 27.5576C51.0355 27.6982 50.8451 27.9004 50.6811 28.1641C50.5229 28.4219 50.3969 28.7354 50.3031 29.1045C50.2094 29.4678 50.1625 29.8691 50.1625 30.3086C50.1625 31.1875 50.3002 31.8584 50.5756 32.3213C50.851 32.7783 51.2172 33.0068 51.6742 33.0068C51.8734 33.0068 52.0785 32.9277 52.2895 32.7695C52.5063 32.6055 52.7025 32.374 52.8783 32.0752C53.06 31.7705 53.2064 31.4014 53.3178 30.9678C53.435 30.5342 53.4936 30.0449 53.4936 29.5ZM60.5055 32.8838C60.6109 32.8838 60.7311 32.8164 60.8658 32.6816C61.0064 32.541 61.1559 32.3506 61.3141 32.1104C61.4723 31.8701 61.6393 31.5889 61.815 31.2666C61.9908 30.9443 62.1725 30.5957 62.36 30.2207L62.4479 30.0361L62.8082 30.3086L62.7203 30.4932C62.4098 31.1143 62.1314 31.6475 61.8854 32.0928C61.6451 32.5322 61.4195 32.8955 61.2086 33.1826C60.9977 33.4639 60.7955 33.6719 60.6021 33.8066C60.4146 33.9355 60.2213 34 60.0221 34C59.7584 34 59.5299 33.915 59.3365 33.7451C59.149 33.5693 58.9908 33.2793 58.8619 32.875C58.7389 32.4648 58.648 31.9258 58.5895 31.2578C58.525 30.5898 58.4928 29.7637 58.4928 28.7793C58.4928 27.3848 58.5514 26.1895 58.6686 25.1934C58.7857 24.1914 58.9439 23.3711 59.1432 22.7324C59.3482 22.0879 59.5826 21.6162 59.8463 21.3174C60.1158 21.0127 60.3971 20.8604 60.69 20.8604C60.8658 20.8604 61.0123 20.9336 61.1295 21.0801C61.2525 21.2207 61.3141 21.4785 61.3141 21.8535C61.3141 22.1465 61.2906 22.4805 61.2438 22.8555C61.1969 23.2305 61.1354 23.6318 61.0592 24.0596C60.983 24.4873 60.8922 24.9326 60.7867 25.3955C60.6813 25.8525 60.5699 26.3096 60.4527 26.7666C60.3355 27.2178 60.2154 27.6631 60.0924 28.1025C59.9693 28.5361 59.8492 28.9434 59.732 29.3242C59.7672 30.0449 59.8053 30.6367 59.8463 31.0996C59.8932 31.5566 59.9459 31.917 60.0045 32.1807C60.0689 32.4443 60.1422 32.6289 60.2242 32.7344C60.3063 32.834 60.4 32.8838 60.5055 32.8838ZM60.7428 22.0645C60.7428 21.9414 60.7281 21.8447 60.6988 21.7744C60.6695 21.7041 60.6227 21.6689 60.5582 21.6689C60.4938 21.6689 60.4293 21.7598 60.3648 21.9414C60.3004 22.123 60.2359 22.3691 60.1715 22.6797C60.1129 22.9902 60.0572 23.3506 60.0045 23.7607C59.9576 24.1709 59.9137 24.6074 59.8727 25.0703C59.8316 25.5273 59.7994 25.9961 59.776 26.4766C59.7525 26.957 59.7379 27.4199 59.732 27.8652C59.8727 27.3496 60.0016 26.8223 60.1188 26.2832C60.2418 25.7383 60.3502 25.2109 60.4439 24.7012C60.5377 24.1914 60.6109 23.7109 60.6637 23.2598C60.7164 22.8027 60.7428 22.4043 60.7428 22.0645ZM64.2127 31.1172C64.2127 30.4961 64.2361 29.8721 64.283 29.2451C64.3299 28.6182 64.3914 27.9824 64.4676 27.3379H63.6678L63.7645 26.8018H64.5379C64.6199 26.2041 64.702 25.6064 64.784 25.0088C64.8719 24.4053 64.951 23.8018 65.0213 23.1982H65.9178C65.9061 23.3271 65.8885 23.5146 65.865 23.7607C65.8475 24.001 65.824 24.2822 65.7947 24.6045C65.7713 24.9209 65.7479 25.2695 65.7244 25.6504C65.701 26.0254 65.6775 26.4092 65.6541 26.8018H67.3592L67.2713 27.3379H65.6189C65.5955 27.6719 65.575 28 65.5574 28.3223C65.5398 28.6445 65.5223 28.9521 65.5047 29.2451C65.493 29.5322 65.4842 29.7988 65.4783 30.0449C65.4725 30.2852 65.4695 30.4932 65.4695 30.6689C65.4695 31.1143 65.4813 31.4863 65.5047 31.7852C65.534 32.084 65.575 32.3242 65.6277 32.5059C65.6863 32.6875 65.7566 32.8164 65.8387 32.8926C65.9266 32.9688 66.0262 33.0068 66.1375 33.0068C66.284 33.0068 66.4451 32.9336 66.6209 32.7871C66.8025 32.6348 66.99 32.4326 67.1834 32.1807C67.3768 31.9287 67.573 31.6357 67.7723 31.3018C67.9715 30.9619 68.1648 30.6016 68.3523 30.2207L68.4402 30.0361L68.8006 30.3086L68.7127 30.4932C68.4432 31.0381 68.1736 31.5273 67.9041 31.9609C67.6404 32.3945 67.3797 32.7637 67.1219 33.0684C66.8641 33.3672 66.6121 33.5986 66.366 33.7627C66.1199 33.9209 65.8826 34 65.6541 34C65.4256 34 65.2205 33.9473 65.0389 33.8418C64.8631 33.7363 64.7137 33.5693 64.5906 33.3408C64.4676 33.1064 64.3738 32.8076 64.3094 32.4443C64.2449 32.0811 64.2127 31.6387 64.2127 31.1172ZM71.418 30.9414C71.418 31.2285 71.4092 31.5332 71.3916 31.8555C71.374 32.1719 71.3359 32.4912 71.2773 32.8135C71.2246 33.1299 71.1455 33.4404 71.04 33.7451C70.9346 34.0439 70.791 34.3223 70.6094 34.5801L69.9414 34.3779C70.0879 33.8857 70.1758 33.3701 70.2051 32.8311C70.2344 32.292 70.249 31.7529 70.249 31.2139C70.249 30.6279 70.2314 30.042 70.1963 29.4561C70.1553 28.8701 70.1113 28.2842 70.0645 27.6982C70.0117 27.1064 69.9678 26.5117 69.9326 25.9141C69.8916 25.3164 69.8711 24.7129 69.8711 24.1035C69.8711 23.7344 69.9121 23.4121 69.9941 23.1367C70.0703 22.8613 70.1729 22.6328 70.3018 22.4512C70.4307 22.2695 70.5742 22.1348 70.7324 22.0469C70.8906 21.9531 71.0488 21.9062 71.207 21.9062C71.4297 21.9062 71.6055 21.9854 71.7344 22.1436C71.8691 22.3018 71.9688 22.5156 72.0332 22.7852C72.0977 23.0547 72.1299 23.3682 72.1299 23.7256C72.1357 24.083 72.1211 24.4609 72.0859 24.8594C72.0508 25.2578 72.001 25.665 71.9365 26.0811C71.8721 26.4971 71.8018 26.9014 71.7256 27.2939C71.6494 27.6865 71.5732 28.0527 71.4971 28.3926C71.4268 28.7324 71.3652 29.0225 71.3125 29.2627C71.3125 29.3096 71.3154 29.3594 71.3213 29.4121C71.3271 29.459 71.3301 29.5059 71.3301 29.5527C71.4531 29.2773 71.6025 28.9814 71.7783 28.665C71.96 28.3428 72.1621 28.0439 72.3848 27.7686C72.6133 27.4932 72.8594 27.2646 73.123 27.083C73.3926 26.8955 73.6768 26.8018 73.9756 26.8018C74.415 26.8018 74.7461 26.9482 74.9688 27.2412C75.1914 27.5342 75.3027 27.9561 75.3027 28.5068C75.3027 28.8877 75.2822 29.2539 75.2412 29.6055C75.2002 29.957 75.1533 30.2969 75.1006 30.625C75.0537 30.9473 75.0098 31.2607 74.9688 31.5654C74.9277 31.8701 74.9072 32.1719 74.9072 32.4707C74.9072 32.8281 74.998 33.0068 75.1797 33.0068C75.2676 33.0068 75.3789 32.9307 75.5137 32.7783C75.6543 32.6201 75.8096 32.4121 75.9795 32.1543C76.1494 31.8965 76.3281 31.6006 76.5156 31.2666C76.7031 30.9326 76.8877 30.584 77.0693 30.2207L77.1572 30.0361L77.5176 30.3086L77.4297 30.4932C77.2246 30.8975 77.0107 31.3076 76.7881 31.7236C76.5654 32.1396 76.3369 32.5176 76.1025 32.8574C75.8682 33.1914 75.6279 33.4668 75.3818 33.6836C75.1416 33.8945 74.9014 34 74.6611 34C74.5557 34 74.4473 33.9824 74.3359 33.9473C74.2305 33.9121 74.1338 33.8506 74.0459 33.7627C73.958 33.6748 73.8848 33.5576 73.8262 33.4111C73.7676 33.2588 73.7383 33.0654 73.7383 32.8311C73.7383 32.5967 73.75 32.3418 73.7734 32.0664C73.7969 31.791 73.8232 31.5098 73.8525 31.2227C73.8877 30.9297 73.9258 30.6396 73.9668 30.3525C74.0078 30.0654 74.043 29.7959 74.0723 29.5439C74.1074 29.292 74.1367 29.0664 74.1602 28.8672C74.1836 28.6621 74.1953 28.4951 74.1953 28.3662C74.1953 28.0322 74.1484 27.7891 74.0547 27.6367C73.9609 27.4844 73.8203 27.4082 73.6328 27.4082C73.3984 27.4082 73.1729 27.5107 72.9561 27.7158C72.7393 27.9209 72.5342 28.1787 72.3408 28.4893C72.1533 28.7939 71.9805 29.125 71.8223 29.4824C71.6641 29.834 71.5234 30.1592 71.4004 30.458C71.4004 30.5459 71.4033 30.6338 71.4092 30.7217C71.415 30.8037 71.418 30.877 71.418 30.9414ZM70.8467 23.418C70.8467 23.6582 70.8555 23.9512 70.873 24.2969C70.8965 24.6367 70.9229 25.0059 70.9521 25.4043C70.9873 25.8027 71.0225 26.2188 71.0576 26.6523C71.0986 27.0859 71.1396 27.5137 71.1807 27.9355C71.2451 27.6074 71.3096 27.2471 71.374 26.8545C71.4385 26.4561 71.4941 26.0576 71.541 25.6592C71.5938 25.2549 71.6318 24.8623 71.6553 24.4814C71.6846 24.1006 71.6904 23.7637 71.6729 23.4707C71.6611 23.1777 71.623 22.9434 71.5586 22.7676C71.4941 22.5859 71.4004 22.4951 71.2773 22.4951C71.166 22.4951 71.0664 22.5625 70.9785 22.6973C70.8906 22.832 70.8467 23.0723 70.8467 23.418ZM55.0879 52.0869C55.3105 52.0869 55.4922 52.0254 55.6328 51.9023C55.7734 51.7793 55.8438 51.6416 55.8438 51.4893C55.8438 51.4131 55.8203 51.3369 55.7734 51.2607C55.7324 51.1846 55.665 51.1172 55.5713 51.0586C55.4834 51 55.3633 50.9531 55.2109 50.918C55.0645 50.8828 54.8857 50.8652 54.6748 50.8652C54.3994 50.8652 54.1328 50.8975 53.875 50.9619C53.6172 51.0264 53.3564 51.1084 53.0928 51.208C53.3389 51.4541 53.5352 51.7412 53.6816 52.0693C53.8281 52.3916 53.9014 52.7637 53.9014 53.1855C53.9014 53.8008 53.7783 54.3457 53.5322 54.8203C53.292 55.2949 52.9668 55.6934 52.5566 56.0156C52.1523 56.3379 51.6836 56.584 51.1504 56.7539C50.6172 56.918 50.0635 57 49.4893 57C48.915 57 48.3555 56.915 47.8105 56.7451C47.2656 56.5752 46.7764 56.3203 46.3428 55.9805C45.915 55.6406 45.5693 55.2129 45.3057 54.6973C45.0479 54.1816 44.9189 53.5811 44.9189 52.8955C44.9189 52.2627 45.0186 51.709 45.2178 51.2344C45.4229 50.7539 45.6836 50.3438 46 50.0039C46.3223 49.6582 46.6768 49.374 47.0635 49.1514C47.4502 48.9287 47.8281 48.7559 48.1973 48.6328C47.9688 48.5156 47.7432 48.3721 47.5205 48.2021C47.3037 48.0322 47.1104 47.8418 46.9404 47.6309C46.7705 47.4199 46.6328 47.1885 46.5273 46.9365C46.4277 46.6787 46.3779 46.4033 46.3779 46.1104C46.3779 45.7002 46.4658 45.3281 46.6416 44.9941C46.8174 44.6602 47.0459 44.376 47.3271 44.1416C47.6143 43.9072 47.9395 43.7285 48.3027 43.6055C48.666 43.4766 49.0381 43.4121 49.4189 43.4121C49.876 43.4121 50.2686 43.4648 50.5967 43.5703C50.9248 43.6699 51.1914 43.8018 51.3965 43.9658C51.6016 44.124 51.751 44.3057 51.8447 44.5107C51.9443 44.7158 51.9941 44.918 51.9941 45.1172C51.9941 45.2871 51.9619 45.4512 51.8975 45.6094C51.8389 45.7676 51.751 45.9082 51.6338 46.0312C51.5225 46.1484 51.3848 46.2422 51.2207 46.3125C51.0566 46.3828 50.875 46.418 50.6758 46.418C50.5234 46.418 50.3857 46.3916 50.2627 46.3389C50.1396 46.2803 50.0312 46.2158 49.9375 46.1455C49.8438 46.0752 49.7676 46.0049 49.709 45.9346C49.6504 45.8643 49.6123 45.8145 49.5947 45.7852L49.8848 45.6094C49.9141 45.6387 49.9551 45.6738 50.0078 45.7148C50.0664 45.7559 50.1309 45.7969 50.2012 45.8379C50.2715 45.873 50.3447 45.9053 50.4209 45.9346C50.5029 45.958 50.5879 45.9697 50.6758 45.9697C50.9102 45.9697 51.0977 45.8848 51.2383 45.7148C51.3789 45.5449 51.4492 45.3457 51.4492 45.1172C51.4492 44.9824 51.417 44.8477 51.3525 44.7129C51.2939 44.5723 51.2002 44.4463 51.0713 44.335C50.9424 44.2178 50.7754 44.124 50.5703 44.0537C50.3711 43.9834 50.1309 43.9482 49.8496 43.9482C49.4805 43.9482 49.1553 44.0156 48.874 44.1504C48.5928 44.2852 48.3584 44.4668 48.1709 44.6953C47.9834 44.918 47.8398 45.1729 47.7402 45.46C47.6465 45.7412 47.5996 46.0312 47.5996 46.3301C47.5996 46.5527 47.626 46.7695 47.6787 46.9805C47.7373 47.1914 47.8193 47.3906 47.9248 47.5781C48.0361 47.7598 48.1738 47.9268 48.3379 48.0791C48.5078 48.2256 48.707 48.3428 48.9355 48.4307C49.0527 48.4014 49.1641 48.3838 49.2695 48.3779C49.375 48.3662 49.4717 48.3604 49.5596 48.3604C49.7119 48.3604 49.832 48.3838 49.9199 48.4307C50.0078 48.4717 50.0518 48.5332 50.0518 48.6152C50.0518 48.7383 50.002 48.832 49.9023 48.8965C49.8027 48.9609 49.6709 48.9932 49.5068 48.9932C49.4072 48.9932 49.2988 48.9844 49.1816 48.9668C49.0703 48.9492 48.9502 48.9199 48.8213 48.8789C48.417 48.9727 48.0625 49.1367 47.7578 49.3711C47.4531 49.5996 47.1982 49.875 46.9932 50.1973C46.7881 50.5195 46.6328 50.874 46.5273 51.2607C46.4277 51.6416 46.3779 52.0312 46.3779 52.4297C46.3779 52.9102 46.4512 53.3848 46.5977 53.8535C46.75 54.3223 46.9785 54.7412 47.2832 55.1104C47.5879 55.4795 47.9658 55.7783 48.417 56.0068C48.8682 56.2354 49.3984 56.3496 50.0078 56.3496C50.4355 56.3496 50.8486 56.2822 51.2471 56.1475C51.6514 56.0127 52.0059 55.8135 52.3105 55.5498C52.6211 55.2861 52.8701 54.9609 53.0576 54.5742C53.2451 54.1875 53.3389 53.7422 53.3389 53.2383C53.3389 52.834 53.2715 52.4795 53.1367 52.1748C53.002 51.8643 52.8232 51.6006 52.6006 51.3838C52.3604 51.4834 52.1201 51.583 51.8799 51.6826C51.6455 51.7822 51.4023 51.873 51.1504 51.9551C50.9043 52.0371 50.6523 52.1045 50.3945 52.1572C50.1367 52.2041 49.8701 52.2275 49.5947 52.2275C49.3838 52.2275 49.1992 52.2012 49.041 52.1484C48.8887 52.0957 48.7598 52.0283 48.6543 51.9463C48.5547 51.8584 48.4785 51.7588 48.4258 51.6475C48.3789 51.5361 48.3555 51.4189 48.3555 51.2959C48.3555 51.1084 48.4053 50.9414 48.5049 50.7949C48.6104 50.6484 48.751 50.5254 48.9268 50.4258C49.1025 50.3203 49.3076 50.2412 49.542 50.1885C49.7822 50.1357 50.0342 50.1094 50.2979 50.1094C50.5791 50.1094 50.8691 50.1416 51.168 50.2061C51.4727 50.2646 51.7715 50.3584 52.0645 50.4873C52.4336 50.3057 52.8232 50.1445 53.2334 50.0039C53.6436 49.8574 54.0889 49.7842 54.5693 49.7842C54.8916 49.7842 55.1699 49.8281 55.4043 49.916C55.6387 49.998 55.832 50.1064 55.9844 50.2412C56.1426 50.376 56.2568 50.5283 56.3271 50.6982C56.4033 50.8682 56.4414 51.0381 56.4414 51.208C56.4414 51.3662 56.4121 51.5186 56.3535 51.665C56.2949 51.8115 56.207 51.9434 56.0898 52.0605C55.9785 52.1777 55.8408 52.2715 55.6768 52.3418C55.5127 52.4121 55.3281 52.4473 55.123 52.4473L55.0879 52.0869ZM50.2979 50.5225C49.9639 50.5225 49.6855 50.5693 49.4629 50.6631C49.2402 50.751 49.1289 50.8711 49.1289 51.0234C49.1289 51.1172 49.1816 51.1963 49.2871 51.2607C49.3926 51.3193 49.5625 51.3486 49.7969 51.3486C50.0664 51.3486 50.3447 51.29 50.6318 51.1729C50.9248 51.0557 51.2354 50.915 51.5635 50.751C51.3408 50.6689 51.1211 50.6104 50.9043 50.5752C50.6875 50.54 50.4854 50.5225 50.2979 50.5225ZM30.7123 72.8018V71.1758C30.7123 70.4727 30.7328 69.834 30.7738 69.2598C30.8207 68.6797 30.9203 68.1436 31.0727 67.6514C30.6098 67.5811 30.1352 67.499 29.6488 67.4053C29.1625 67.3057 28.685 67.2119 28.2162 67.124C27.7533 67.0361 27.3109 66.9629 26.8891 66.9043C26.473 66.8398 26.098 66.8076 25.7641 66.8076C25.3129 66.8076 24.9379 66.8457 24.6391 66.9219C24.3402 66.9922 24.1 67.0889 23.9184 67.2119C23.7367 67.335 23.6078 67.4785 23.5316 67.6426C23.4613 67.8008 23.4262 67.9707 23.4262 68.1523C23.4262 68.334 23.4672 68.501 23.5492 68.6533C23.6371 68.8057 23.7602 68.9404 23.9184 69.0576C24.0766 69.1689 24.2641 69.2568 24.4809 69.3213C24.7035 69.3857 24.9496 69.418 25.2191 69.418C25.518 69.418 25.7816 69.3857 26.0102 69.3213C26.2445 69.251 26.4438 69.1748 26.6078 69.0928C26.8012 68.999 26.9711 68.8906 27.1176 68.7676L27.2934 69.1455C27.1117 69.2803 26.9125 69.4004 26.6957 69.5059C26.5082 69.5996 26.2885 69.6846 26.0365 69.7607C25.7904 69.8311 25.518 69.8662 25.2191 69.8662C24.8266 69.8662 24.4779 69.8135 24.1732 69.708C23.8744 69.6025 23.6225 69.4619 23.4174 69.2861C23.2123 69.1045 23.057 68.8936 22.9516 68.6533C22.8461 68.4131 22.7934 68.1582 22.7934 67.8887C22.7934 67.6016 22.8432 67.3232 22.9428 67.0537C23.0365 66.7842 23.1977 66.5439 23.4262 66.333C23.6488 66.1221 23.9447 65.9551 24.3139 65.832C24.683 65.7031 25.1371 65.6387 25.6762 65.6387C26.1742 65.6387 26.6723 65.6797 27.1703 65.7617C27.6742 65.8379 28.1693 65.9346 28.6557 66.0518C29.1479 66.1631 29.6254 66.2861 30.0883 66.4209C30.557 66.5498 31.0053 66.667 31.433 66.7725C31.685 66.3096 31.9984 65.9404 32.3734 65.665C32.7484 65.3838 33.1557 65.2432 33.5951 65.2432C33.7826 65.2432 33.9496 65.2754 34.0961 65.3398C34.2426 65.3984 34.3656 65.4775 34.4652 65.5771C34.5648 65.6768 34.6381 65.7939 34.685 65.9287C34.7377 66.0576 34.7641 66.1953 34.7641 66.3418C34.7641 66.5879 34.7055 66.8018 34.5883 66.9834C34.477 67.1592 34.3217 67.3086 34.1225 67.4316C33.9232 67.5488 33.6889 67.6367 33.4193 67.6953C33.1498 67.748 32.8598 67.7744 32.5492 67.7744C32.4789 67.7744 32.4057 67.7744 32.3295 67.7744C32.2592 67.7744 32.1889 67.7686 32.1186 67.7568C32.0717 68.0498 32.0336 68.3779 32.0043 68.7412C31.9809 69.0986 31.9691 69.5029 31.9691 69.9541V72.8018H33.1469L32.9623 73.3379H31.9691V75.5C31.9691 75.9922 31.9633 76.4229 31.9516 76.792C31.9398 77.1553 31.9076 77.4805 31.8549 77.7676C31.8021 78.0488 31.723 78.3037 31.6176 78.5322C31.5121 78.7549 31.3656 78.9746 31.1781 79.1914C30.8559 79.5605 30.4076 79.8623 29.8334 80.0967C29.2592 80.3311 28.5619 80.4482 27.7416 80.4482C27.2377 80.4482 26.7572 80.3779 26.3002 80.2373C25.8432 80.0967 25.4418 79.9004 25.0961 79.6484C24.7504 79.3965 24.475 79.0947 24.2699 78.7432C24.0648 78.3916 23.9623 78.002 23.9623 77.5742C23.9623 77.2578 24.0121 76.9736 24.1117 76.7217C24.2172 76.4697 24.352 76.2471 24.516 76.0537C24.6801 75.8545 24.8588 75.6846 25.0521 75.5439C25.2514 75.4033 25.4447 75.2861 25.6322 75.1924C25.8197 75.0986 25.9896 75.0254 26.142 74.9727C26.2943 74.9199 26.4086 74.8848 26.4848 74.8672L26.6605 75.2275C26.5258 75.2979 26.3734 75.3945 26.2035 75.5176C26.0395 75.6348 25.8842 75.7871 25.7377 75.9746C25.5912 76.1562 25.4682 76.3789 25.3686 76.6426C25.2689 76.9062 25.2191 77.2168 25.2191 77.5742C25.2191 77.9551 25.2836 78.2979 25.4125 78.6025C25.5414 78.9014 25.7201 79.1562 25.9486 79.3672C26.183 79.5723 26.4584 79.7305 26.7748 79.8418C27.0971 79.9473 27.4486 80 27.8295 80C28.2572 80 28.6469 79.9414 28.9984 79.8242C29.3559 79.707 29.6605 79.5107 29.9125 79.2354C30.1645 78.96 30.3607 78.5938 30.5014 78.1367C30.642 77.6797 30.7123 77.1113 30.7123 76.4316V73.3379H29.0072L29.183 72.8018H30.7123ZM33.5951 65.7266C33.3314 65.7266 33.0883 65.8232 32.8656 66.0166C32.643 66.2041 32.4584 66.5264 32.3119 66.9834C32.4936 67.0127 32.6693 67.0361 32.8393 67.0537C33.0092 67.0713 33.1703 67.0801 33.3227 67.0801C33.4809 67.0801 33.6156 67.0596 33.727 67.0186C33.8441 66.9717 33.9379 66.9131 34.0082 66.8428C34.0785 66.7725 34.1313 66.6934 34.1664 66.6055C34.2016 66.5176 34.2191 66.4297 34.2191 66.3418C34.2191 66.1719 34.1605 66.0283 34.0434 65.9111C33.9262 65.7881 33.7768 65.7266 33.5951 65.7266ZM36.2125 76.1328L36.1246 76.3086L36.0367 76.4932L35.6764 76.2207L35.7643 76.0361C35.9107 75.7373 36.0309 75.4385 36.1246 75.1396C36.2242 74.835 36.3033 74.5508 36.3619 74.2871C36.4264 74.0234 36.4791 73.792 36.5201 73.5928C36.5611 73.3936 36.6021 73.25 36.6432 73.1621C36.6783 73.0918 36.7281 73.0361 36.7926 72.9951C36.8629 72.9482 36.9332 72.9102 37.0035 72.8809C37.0797 72.8516 37.15 72.8311 37.2145 72.8193C37.2848 72.8076 37.3346 72.8018 37.3639 72.8018C37.4928 72.8018 37.5777 72.8281 37.6188 72.8809C37.6656 72.9336 37.6891 73.0273 37.6891 73.1621C37.6891 73.2266 37.6744 73.3877 37.6451 73.6455C37.6217 73.8975 37.5924 74.2168 37.5572 74.6035C37.5279 74.9844 37.4986 75.415 37.4693 75.8955C37.4459 76.3701 37.4342 76.8623 37.4342 77.3721C37.4342 77.7412 37.4518 78.0342 37.4869 78.251C37.5221 78.4619 37.566 78.6201 37.6188 78.7256C37.6773 78.8311 37.7389 78.8984 37.8033 78.9277C37.8736 78.957 37.9439 78.9717 38.0143 78.9717C38.108 78.9717 38.2135 78.9307 38.3307 78.8486C38.4479 78.7666 38.5855 78.623 38.7438 78.418C38.902 78.207 39.0836 77.9258 39.2887 77.5742C39.4938 77.2168 39.734 76.7656 40.0094 76.2207L40.1061 76.0361L40.4664 76.3086L40.3697 76.4932C40.1471 76.9268 39.9244 77.3545 39.7018 77.7764C39.485 78.1982 39.2623 78.5732 39.0338 78.9014C38.8111 79.2295 38.5855 79.4961 38.357 79.7012C38.1285 79.9004 37.9 80 37.6715 80C37.4313 80 37.2232 79.9531 37.0475 79.8594C36.8775 79.7598 36.734 79.5986 36.6168 79.376C36.5055 79.1533 36.4205 78.8604 36.3619 78.4971C36.3092 78.1279 36.2828 77.6738 36.2828 77.1348C36.2828 76.9824 36.2828 76.8242 36.2828 76.6602C36.2828 76.4902 36.2887 76.3145 36.3004 76.1328H36.2125ZM38.0143 71C38.0143 71.2051 37.9439 71.3779 37.8033 71.5186C37.6686 71.6533 37.4986 71.7207 37.2936 71.7207C37.0943 71.7207 36.9244 71.6533 36.7838 71.5186C36.6432 71.3779 36.5729 71.2051 36.5729 71C36.5729 70.8008 36.6432 70.6309 36.7838 70.4902C36.9244 70.3496 37.0943 70.2793 37.2936 70.2793C37.4986 70.2793 37.6686 70.3496 37.8033 70.4902C37.9439 70.6309 38.0143 70.8008 38.0143 71ZM41.8709 77.1172C41.8709 76.4961 41.8943 75.8721 41.9412 75.2451C41.9881 74.6182 42.0496 73.9824 42.1258 73.3379H41.326L41.4227 72.8018H42.1961C42.2781 72.2041 42.3602 71.6064 42.4422 71.0088C42.5301 70.4053 42.6092 69.8018 42.6795 69.1982H43.576C43.5643 69.3271 43.5467 69.5146 43.5232 69.7607C43.5057 70.001 43.4822 70.2822 43.4529 70.6045C43.4295 70.9209 43.4061 71.2695 43.3826 71.6504C43.3592 72.0254 43.3357 72.4092 43.3123 72.8018H45.0174L44.9295 73.3379H43.2771C43.2537 73.6719 43.2332 74 43.2156 74.3223C43.198 74.6445 43.1805 74.9521 43.1629 75.2451C43.1512 75.5322 43.1424 75.7988 43.1365 76.0449C43.1307 76.2852 43.1277 76.4932 43.1277 76.6689C43.1277 77.1143 43.1395 77.4863 43.1629 77.7852C43.1922 78.084 43.2332 78.3242 43.2859 78.5059C43.3445 78.6875 43.4148 78.8164 43.4969 78.8926C43.5848 78.9688 43.6844 79.0068 43.7957 79.0068C43.9422 79.0068 44.1033 78.9336 44.2791 78.7871C44.4607 78.6348 44.6482 78.4326 44.8416 78.1807C45.035 77.9287 45.2313 77.6357 45.4305 77.3018C45.6297 76.9619 45.823 76.6016 46.0105 76.2207L46.0984 76.0361L46.4588 76.3086L46.3709 76.4932C46.1014 77.0381 45.8318 77.5273 45.5623 77.9609C45.2986 78.3945 45.0379 78.7637 44.7801 79.0684C44.5223 79.3672 44.2703 79.5986 44.0242 79.7627C43.7781 79.9209 43.5408 80 43.3123 80C43.0838 80 42.8787 79.9473 42.6971 79.8418C42.5213 79.7363 42.3719 79.5693 42.2488 79.3408C42.1258 79.1064 42.032 78.8076 41.9676 78.4443C41.9031 78.0811 41.8709 77.6387 41.8709 77.1172ZM51.291 73.4082C51.127 73.4082 50.9424 73.4814 50.7373 73.6279C50.5381 73.7744 50.3359 73.9648 50.1309 74.1992C49.9258 74.4277 49.7266 74.6855 49.5332 74.9727C49.3457 75.2598 49.1816 75.5439 49.041 75.8252C49.0234 76.3408 49.0059 76.9033 48.9883 77.5127C48.9766 78.1221 48.9707 78.7725 48.9707 79.4639C48.9707 79.5518 48.9297 79.6309 48.8477 79.7012C48.7715 79.7656 48.6807 79.8213 48.5752 79.8682C48.4697 79.9092 48.3613 79.9414 48.25 79.9648C48.1387 79.9883 48.0479 80 47.9775 80C47.8896 80 47.8076 79.9736 47.7314 79.9209C47.6553 79.8682 47.6172 79.751 47.6172 79.5693C47.6172 79.4814 47.626 79.373 47.6436 79.2441C47.6611 79.1094 47.6846 78.9658 47.7139 78.8135C47.7373 78.6611 47.7666 78.5059 47.8018 78.3477C47.8311 78.1836 47.8604 78.0312 47.8896 77.8906V73.5928C47.8896 73.4756 47.8926 73.3848 47.8984 73.3203C47.8984 73.25 47.9072 73.1973 47.9248 73.1621C47.96 73.0801 48.0215 73.0156 48.1094 72.9688C48.1973 72.9219 48.291 72.8867 48.3906 72.8633C48.4902 72.834 48.5869 72.8164 48.6807 72.8105C48.7744 72.8047 48.8477 72.8018 48.9004 72.8018C49 72.8018 49.0674 72.8281 49.1025 72.8809C49.1436 72.9336 49.1641 73.0273 49.1641 73.1621C49.1641 73.1445 49.1494 73.2881 49.1201 73.5928C49.0967 73.8975 49.0762 74.334 49.0586 74.9023C49.2344 74.627 49.4248 74.3633 49.6299 74.1113C49.835 73.8594 50.0488 73.6367 50.2715 73.4434C50.4941 73.25 50.7227 73.0947 50.957 72.9775C51.1973 72.8604 51.4404 72.8018 51.6865 72.8018C52.126 72.8018 52.4482 72.9424 52.6533 73.2236C52.8584 73.499 52.9609 73.874 52.9609 74.3486C52.9609 74.6475 52.9404 74.9814 52.8994 75.3506C52.8643 75.7139 52.8203 76.0859 52.7676 76.4668C52.7207 76.8418 52.6768 77.2109 52.6357 77.5742C52.6006 77.9316 52.583 78.2598 52.583 78.5586C52.583 78.9453 52.7031 79.1387 52.9434 79.1387C53.0195 79.1387 53.1074 79.1006 53.207 79.0244C53.3125 78.9424 53.4414 78.793 53.5938 78.5762C53.752 78.3594 53.9395 78.0635 54.1562 77.6885C54.373 77.3076 54.6309 76.8184 54.9297 76.2207L55.0176 76.0361L55.3779 76.3086L55.29 76.4932C54.9385 77.1963 54.625 77.7734 54.3496 78.2246C54.0801 78.6758 53.834 79.0332 53.6113 79.2969C53.3887 79.5605 53.1807 79.7451 52.9873 79.8506C52.7939 79.9502 52.6006 80 52.4072 80C52.2842 80 52.1611 79.9824 52.0381 79.9473C51.915 79.9121 51.8066 79.8506 51.7129 79.7627C51.6191 79.6748 51.543 79.5576 51.4844 79.4111C51.4258 79.2588 51.3965 79.0654 51.3965 78.8311C51.3965 78.4795 51.4199 78.084 51.4668 77.6445C51.5137 77.2051 51.5664 76.7656 51.625 76.3262C51.6836 75.8867 51.7363 75.4736 51.7832 75.0869C51.8301 74.6943 51.8535 74.375 51.8535 74.1289C51.8535 73.9121 51.8066 73.7393 51.7129 73.6104C51.6191 73.4756 51.4785 73.4082 51.291 73.4082ZM59.4191 79.0068C59.6242 79.0068 59.8322 78.9541 60.0432 78.8486C60.26 78.7432 60.4768 78.5791 60.6936 78.3564C60.9162 78.1338 61.1447 77.8467 61.3791 77.4951C61.6135 77.1377 61.8537 76.7129 62.0998 76.2207L62.1877 76.0361L62.548 76.3086L62.4602 76.4932C62.1438 77.1201 61.8273 77.6562 61.5109 78.1016C61.2004 78.5469 60.8928 78.9102 60.5881 79.1914C60.2893 79.4727 59.9934 79.6777 59.7004 79.8066C59.4074 79.9355 59.1262 80 58.8566 80C58.4758 80 58.1359 79.9209 57.8371 79.7627C57.5383 79.6045 57.2863 79.3906 57.0813 79.1211C56.8762 78.8457 56.7209 78.5293 56.6154 78.1719C56.5041 77.8086 56.4484 77.4277 56.4484 77.0293C56.4484 76.3965 56.5363 75.8223 56.7121 75.3066C56.882 74.7852 57.1105 74.3398 57.3977 73.9707C57.6906 73.6016 58.0217 73.3145 58.3908 73.1094C58.76 72.9043 59.1438 72.8018 59.5422 72.8018C59.9465 72.8018 60.2541 72.9043 60.465 73.1094C60.6818 73.3145 60.7902 73.5723 60.7902 73.8828C60.7902 74.1816 60.7053 74.4629 60.5354 74.7266C60.3654 74.9844 60.134 75.2393 59.841 75.4912C59.5539 75.7373 59.2199 75.9834 58.8391 76.2295C58.4582 76.4697 58.0568 76.7188 57.635 76.9766C57.676 77.2812 57.7463 77.5596 57.8459 77.8115C57.9455 78.0576 58.0715 78.2715 58.2238 78.4531C58.3762 78.6289 58.552 78.7666 58.7512 78.8662C58.9504 78.96 59.173 79.0068 59.4191 79.0068ZM59.6916 74.1465C59.6916 73.9121 59.6272 73.7275 59.4982 73.5928C59.3752 73.458 59.2229 73.3906 59.0412 73.3906C58.8889 73.3906 58.7277 73.4463 58.5578 73.5576C58.3879 73.6631 58.2326 73.8359 58.092 74.0762C57.9514 74.3105 57.8342 74.6123 57.7404 74.9814C57.6467 75.3506 57.5998 75.7988 57.5998 76.3262V76.5283C57.799 76.4229 58.0188 76.2852 58.259 76.1152C58.5051 75.9395 58.7336 75.7461 58.9445 75.5352C59.1555 75.3242 59.3313 75.1016 59.4719 74.8672C59.6184 74.627 59.6916 74.3867 59.6916 74.1465ZM69.1205 76.9414C69.1205 77.3398 69.059 77.7236 68.9359 78.0928C68.8187 78.4561 68.643 78.7812 68.4086 79.0684C68.1801 79.3496 67.893 79.5752 67.5473 79.7451C67.2074 79.915 66.8178 80 66.3783 80C66.0619 80 65.7777 79.9502 65.5258 79.8506C65.2797 79.7451 65.0687 79.6074 64.893 79.4375C64.7172 79.2617 64.5824 79.0654 64.4887 78.8486C64.3949 78.626 64.348 78.3975 64.348 78.1631C64.348 77.9287 64.392 77.7119 64.4799 77.5127C64.5736 77.3076 64.6967 77.1348 64.849 76.9941C65.0072 76.8477 65.1859 76.7334 65.3852 76.6514C65.5844 76.5693 65.7953 76.5283 66.018 76.5283C66.1586 76.5283 66.3051 76.5459 66.4574 76.5811V76.8359C66.2699 76.8359 66.0854 76.874 65.9037 76.9502C65.7279 77.0264 65.5697 77.1318 65.4291 77.2666C65.2943 77.3955 65.1859 77.5537 65.1039 77.7412C65.0219 77.9229 64.9809 78.1191 64.9809 78.3301C64.9809 78.7168 65.1127 79.0273 65.3764 79.2617C65.6459 79.4902 66.0121 79.6045 66.475 79.6045C66.7094 79.6045 66.9232 79.5605 67.1166 79.4727C67.31 79.3789 67.474 79.2529 67.6088 79.0947C67.7494 78.9307 67.8549 78.7373 67.9252 78.5146C68.0014 78.292 68.0395 78.0488 68.0395 77.7852C68.0395 77.5332 67.9896 77.2988 67.89 77.082C67.7904 76.8652 67.6586 76.6602 67.4945 76.4668C67.3305 76.2734 67.143 76.0918 66.932 75.9219C66.727 75.752 66.516 75.5908 66.2992 75.4385C66.0883 75.2803 65.8803 75.1279 65.6752 74.9814C65.4701 74.835 65.2914 74.6885 65.1391 74.542L64.2602 76.4932L63.8998 76.2207L64.7963 74.2607C64.5795 74.0557 64.4184 73.8623 64.3129 73.6807C64.2133 73.4932 64.1635 73.2705 64.1635 73.0127C64.1635 72.8721 64.1869 72.7402 64.2338 72.6172C64.2865 72.4883 64.3539 72.3799 64.4359 72.292C64.5238 72.1982 64.6234 72.125 64.7348 72.0723C64.8461 72.0195 64.9633 71.9932 65.0863 71.9932C65.309 71.9932 65.476 72.0576 65.5873 72.1865C65.6986 72.3096 65.7543 72.4648 65.7543 72.6523C65.7543 72.7402 65.7455 72.834 65.7279 72.9336C65.7104 73.0273 65.6869 73.124 65.6576 73.2236C65.6342 73.3174 65.6078 73.4053 65.5785 73.4873C65.5551 73.5693 65.5346 73.6396 65.517 73.6982C65.6928 73.833 65.9037 73.9648 66.1498 74.0938C66.3959 74.2168 66.6508 74.3457 66.9145 74.4805C67.184 74.6152 67.4506 74.7617 67.7143 74.9199C67.9779 75.0781 68.2123 75.2539 68.4174 75.4473C68.6283 75.6406 68.7982 75.8604 68.9271 76.1064C69.0561 76.3525 69.1205 76.6309 69.1205 76.9414ZM65.1039 72.3887C65.0219 72.3887 64.9545 72.418 64.9018 72.4766C64.8549 72.5293 64.8314 72.6025 64.8314 72.6963C64.8314 72.8018 64.8578 72.9189 64.9105 73.0479C64.9633 73.1768 65.057 73.3027 65.1918 73.4258C65.2504 73.3027 65.2943 73.1826 65.3236 73.0654C65.3588 72.9482 65.3764 72.8311 65.3764 72.7139C65.3764 72.6201 65.35 72.5439 65.2973 72.4854C65.2504 72.4209 65.1859 72.3887 65.1039 72.3887ZM76.774 76.9414C76.774 77.3398 76.7125 77.7236 76.5895 78.0928C76.4723 78.4561 76.2965 78.7812 76.0621 79.0684C75.8336 79.3496 75.5465 79.5752 75.2008 79.7451C74.8609 79.915 74.4713 80 74.0318 80C73.7154 80 73.4313 79.9502 73.1793 79.8506C72.9332 79.7451 72.7223 79.6074 72.5465 79.4375C72.3707 79.2617 72.2359 79.0654 72.1422 78.8486C72.0484 78.626 72.0016 78.3975 72.0016 78.1631C72.0016 77.9287 72.0455 77.7119 72.1334 77.5127C72.2271 77.3076 72.3502 77.1348 72.5025 76.9941C72.6607 76.8477 72.8395 76.7334 73.0387 76.6514C73.2379 76.5693 73.4488 76.5283 73.6715 76.5283C73.8121 76.5283 73.9586 76.5459 74.1109 76.5811V76.8359C73.9234 76.8359 73.7389 76.874 73.5572 76.9502C73.3814 77.0264 73.2232 77.1318 73.0826 77.2666C72.9479 77.3955 72.8395 77.5537 72.7574 77.7412C72.6754 77.9229 72.6344 78.1191 72.6344 78.3301C72.6344 78.7168 72.7662 79.0273 73.0299 79.2617C73.2994 79.4902 73.6656 79.6045 74.1285 79.6045C74.3629 79.6045 74.5768 79.5605 74.7701 79.4727C74.9635 79.3789 75.1275 79.2529 75.2623 79.0947C75.4029 78.9307 75.5084 78.7373 75.5787 78.5146C75.6549 78.292 75.693 78.0488 75.693 77.7852C75.693 77.5332 75.6432 77.2988 75.5436 77.082C75.4439 76.8652 75.3121 76.6602 75.148 76.4668C74.984 76.2734 74.7965 76.0918 74.5855 75.9219C74.3805 75.752 74.1695 75.5908 73.9527 75.4385C73.7418 75.2803 73.5338 75.1279 73.3287 74.9814C73.1236 74.835 72.9449 74.6885 72.7926 74.542L71.9137 76.4932L71.5533 76.2207L72.4498 74.2607C72.233 74.0557 72.0719 73.8623 71.9664 73.6807C71.8668 73.4932 71.817 73.2705 71.817 73.0127C71.817 72.8721 71.8404 72.7402 71.8873 72.6172C71.94 72.4883 72.0074 72.3799 72.0895 72.292C72.1773 72.1982 72.277 72.125 72.3883 72.0723C72.4996 72.0195 72.6168 71.9932 72.7398 71.9932C72.9625 71.9932 73.1295 72.0576 73.2408 72.1865C73.3521 72.3096 73.4078 72.4648 73.4078 72.6523C73.4078 72.7402 73.399 72.834 73.3814 72.9336C73.3639 73.0273 73.3404 73.124 73.3111 73.2236C73.2877 73.3174 73.2613 73.4053 73.232 73.4873C73.2086 73.5693 73.1881 73.6396 73.1705 73.6982C73.3463 73.833 73.5572 73.9648 73.8033 74.0938C74.0494 74.2168 74.3043 74.3457 74.568 74.4805C74.8375 74.6152 75.1041 74.7617 75.3678 74.9199C75.6314 75.0781 75.8658 75.2539 76.0709 75.4473C76.2818 75.6406 76.4518 75.8604 76.5807 76.1064C76.7096 76.3525 76.774 76.6309 76.774 76.9414ZM72.7574 72.3887C72.6754 72.3887 72.608 72.418 72.5553 72.4766C72.5084 72.5293 72.485 72.6025 72.485 72.6963C72.485 72.8018 72.5113 72.9189 72.5641 73.0479C72.6168 73.1768 72.7105 73.3027 72.8453 73.4258C72.9039 73.3027 72.9479 73.1826 72.9771 73.0654C73.0123 72.9482 73.0299 72.8311 73.0299 72.7139C73.0299 72.6201 73.0035 72.5439 72.9508 72.4854C72.9039 72.4209 72.8395 72.3887 72.7574 72.3887Z"
        fill="#123020" />
</svg>